<mxfile host="app.diagrams.net" modified="2024-06-18T09:53:39.497Z" agent="Mozilla/5.0 (Windows NT 10.0; Win64; x64; rv:127.0) Gecko/20100101 Firefox/127.0" version="24.5.5" etag="vmqO8vWlN8s20p-U6ym9" type="github">
  <diagram name="Page-1" id="nb2iQpFDd6m4JnEtQh3u">
    <mxGraphModel>
      <root>
        <mxCell id="0" />
        <mxCell id="1" parent="0" />
      </root>
    </mxGraphModel>
  </diagram>
</mxfile>
